<?xml version="1.0" encoding="UTF-8"?>
<svg version="1.1" xmlns="http://www.w3.org/2000/svg" width="225" height="225">
<path d="M0 0 C74.25 0 148.5 0 225 0 C225 74.25 225 148.5 225 225 C150.75 225 76.5 225 0 225 C0 150.75 0 76.5 0 0 Z " fill="#A2E51C" transform="translate(0,0)"/>
<path d="M0 0 C6.33130025 -0.07673706 12.66247839 -0.12888486 18.99414062 -0.16479492 C21.14327476 -0.17978213 23.29237883 -0.20017887 25.44140625 -0.22631836 C53.4123639 -0.55775861 53.4123639 -0.55775861 61.0625 5.375 C61.701875 6.24125 62.34125 7.1075 63 8 C63.598125 8.78375 64.19625 9.5675 64.8125 10.375 C66.63624223 14.40643018 66.70865549 17.74032496 65.37890625 21.98046875 C61.85449473 30.07878321 55.7337264 34.48270192 47.75 37.8125 C46.75484375 38.19019531 45.7596875 38.56789062 44.734375 38.95703125 C42.39201868 39.85047288 40.22802042 40.8613067 38 42 C38.89847656 42.95132813 39.79695313 43.90265625 40.72265625 44.8828125 C44.37439492 49.14406696 46.32841936 53.72167121 48.4375 58.875 C51.98330783 67.12282476 55.53083562 74.01398852 62.3125 80.0625 C69.14529767 82.44603407 76.97397165 80.9065843 84 80 C83.80078125 81.86328125 83.80078125 81.86328125 83 84 C80.85546875 85.23046875 80.85546875 85.23046875 78.1875 86.1875 C77.31480469 86.51105469 76.44210938 86.83460938 75.54296875 87.16796875 C65.86103718 90.33578968 55.37972311 90.13396811 46 86 C33.42155251 79.53463655 28.39616354 68.38595233 22.90917969 56.04443359 C21.62871639 53.16511037 20.3120594 50.30253367 19 47.4375 C18.33209902 45.95889026 17.66487003 44.47997511 17 43 C15.42931564 47.46405029 14.00221167 51.92479384 12.79296875 56.5 C12.57987061 57.30002441 12.36677246 58.10004883 12.1472168 58.92431641 C11.7194324 60.54412016 11.30016114 62.16619875 10.88989258 63.79052734 C10.68904053 64.5480127 10.48818848 65.30549805 10.28125 66.0859375 C10.10658203 66.7670459 9.93191406 67.4481543 9.75195312 68.14990234 C8.82386675 70.43335642 7.99435965 71.53929885 6 73 C3.63989258 73.34057617 3.63989258 73.34057617 0.89453125 73.29296875 C-0.08837891 73.28330078 -1.07128906 73.27363281 -2.08398438 73.26367188 C-3.10814453 73.23853516 -4.13230469 73.21339844 -5.1875 73.1875 C-6.22326172 73.17396484 -7.25902344 73.16042969 -8.32617188 73.14648438 C-10.88463699 73.11111389 -13.4420578 73.06175544 -16 73 C-14.89653724 70.79307448 -13.78457342 68.6183567 -12.57104492 66.46850586 C-10.3778791 61.62650013 -9.16468716 56.64725874 -7.86328125 51.50390625 C-7.57897751 50.39699936 -7.29467377 49.29009247 -7.00175476 48.14964294 C-6.40421712 45.81475269 -5.81019955 43.47895912 -5.21948242 41.14233398 C-4.31582352 37.57561785 -3.39595274 34.01335531 -2.47460938 30.45117188 C-1.89484785 28.17733438 -1.31603978 25.90325352 -0.73828125 23.62890625 C-0.46333328 22.56829483 -0.18838531 21.50768341 0.09489441 20.41493225 C1.89859351 13.20865326 3.3837288 6.97894064 0 0 Z " fill="#3F3F3D" transform="translate(110,68)"/>
<path d="M0 0 C0.93134766 0.01611328 1.86269531 0.03222656 2.82226562 0.04882812 C4.26182617 0.11166992 4.26182617 0.11166992 5.73046875 0.17578125 C7.1990332 0.20961914 7.1990332 0.20961914 8.69726562 0.24414062 C11.1057433 0.30288398 13.51105953 0.38495996 15.91796875 0.48828125 C15.29055572 3.39801994 14.5181719 5.23797963 13.07128906 7.95117188 C10.28443227 13.40053669 8.94590194 19.17054191 7.46484375 25.08203125 C7.00721649 26.86293152 7.00721649 26.86293152 6.54034424 28.67980957 C5.57434155 32.44717665 4.62098485 36.21761046 3.66796875 39.98828125 C3.01255312 42.55359874 2.35631185 45.11870543 1.69921875 47.68359375 C0.09590394 53.94941461 -1.49705925 60.21779689 -3.08203125 66.48828125 C3.07817708 66.65031924 3.07817708 66.65031924 9.1015625 65.5703125 C9.79749512 65.37010498 10.49342773 65.16989746 11.21044922 64.96362305 C11.91830566 64.74488525 12.62616211 64.52614746 13.35546875 64.30078125 C14.46752686 63.96784058 14.46752686 63.96784058 15.60205078 63.62817383 C20.5166745 62.09471205 24.91256897 60.21687673 29.25390625 57.40625 C30.91796875 56.48828125 30.91796875 56.48828125 33.91796875 56.48828125 C32.88517502 62.52708696 31.7160692 68.00866788 28.91796875 73.48828125 C26.3027509 74.79589018 24.38683474 74.60825673 21.45849609 74.60180664 C20.31746429 74.60173111 19.1764325 74.60165558 18.00082397 74.60157776 C16.76434113 74.59641647 15.52785828 74.59125519 14.25390625 74.5859375 C12.99156158 74.58452255 11.72921692 74.5831076 10.42861938 74.58164978 C7.07158576 74.57699203 3.71461975 74.56800533 0.35760498 74.5569458 C-3.06758031 74.54671895 -6.49277259 74.54214943 -9.91796875 74.53710938 C-16.63934168 74.52606363 -23.36068256 74.50931319 -30.08203125 74.48828125 C-29.79163467 73.90955261 -29.5012381 73.33082397 -29.20204163 72.73455811 C-28.64763649 71.62265106 -28.64763649 71.62265106 -28.08203125 70.48828125 C-27.76685043 69.85996399 -27.45166962 69.23164673 -27.12693787 68.58428955 C-24.05828544 62.10900451 -22.42013121 55.49481604 -20.8046875 48.53515625 C-20.20298765 46.03503257 -19.60075841 43.53503624 -18.99804688 41.03515625 C-18.06532767 37.12399148 -17.13751509 33.21185099 -16.22094727 29.296875 C-15.33015368 25.49671442 -14.41102162 21.70363594 -13.4921875 17.91015625 C-13.22430923 16.73926453 -12.95643097 15.5683728 -12.68043518 14.36199951 C-9.09970166 -0.27913195 -9.09970166 -0.27913195 0 0 Z " fill="#3F3F3D" transform="translate(60.08203125,67.51171875)"/>
<path d="M0 0 C13.84073942 -0.6046925 13.84073942 -0.6046925 19.875 4.625 C21.96237575 9.03168214 21.76602039 13.57643267 20.30859375 18.1875 C17.57041166 24.23670562 13.24429686 28.51999557 7 31 C3.984375 31.1953125 3.984375 31.1953125 0.75 31.125 C-0.32765625 31.10695313 -1.4053125 31.08890625 -2.515625 31.0703125 C-3.33546875 31.04710938 -4.1553125 31.02390625 -5 31 C-4.57651657 24.39949958 -3.39314281 18.30530192 -1.69921875 11.91796875 C-0.74793101 7.94806963 -0.33870734 4.0644881 0 0 Z " fill="#A1E31C" transform="translate(133,73)"/>
<path d="M0 0 C6.93 0 13.86 0 21 0 C21 74.25 21 148.5 21 225 C13.41 225 5.82 225 -2 225 C-2 224.67 -2 224.34 -2 224 C-1.35933594 223.85304687 -0.71867188 223.70609375 -0.05859375 223.5546875 C6.73706011 221.79247622 12.23791491 219.53482428 16.01025718 213.34134769 C18.6223684 208.49669925 19.57874379 204.40366009 19.5146637 198.87866211 C19.52160922 198.10159629 19.52855475 197.32453047 19.53571075 196.5239172 C19.5538873 193.94142701 19.54374308 191.35986523 19.53344727 188.77734375 C19.54051043 186.91723955 19.54925712 185.0571411 19.55955505 183.197052 C19.58201259 178.15986455 19.57911803 173.12299185 19.57023358 168.08577347 C19.56511574 163.87595847 19.57242262 159.66620219 19.57970566 155.45639324 C19.59669268 145.52393627 19.59315032 135.59163299 19.57641602 125.65917969 C19.55948898 115.42071131 19.57534005 105.1826691 19.6076389 94.94424725 C19.63434648 86.14400171 19.64160783 77.34388875 19.63312382 68.54360676 C19.62819888 63.29182282 19.63038714 58.04029537 19.65091133 52.7885437 C19.66928715 47.85041022 19.66328637 42.91288937 19.63871193 37.97478867 C19.63371042 36.16563089 19.63717665 34.35642628 19.64986038 32.54730606 C20.06321471 19.77352509 20.06321471 19.77352509 14 9 C9.6826221 4.6826221 5.6890946 2.86366892 0 1 C0 0.67 0 0.34 0 0 Z " fill="#B3E954" transform="translate(204,0)"/>
<path d="M0 0 C0.33 0 0.66 0 1 0 C1 7.92 1 15.84 1 24 C-6.59 24 -14.18 24 -22 24 C-22 23.67 -22 23.34 -22 23 C-21.03900391 22.77957031 -21.03900391 22.77957031 -20.05859375 22.5546875 C-12.97518743 20.71785784 -7.81192277 18.29504058 -3.71875 12.04296875 C-1.61437234 8.1122919 -0.44739185 4.47391852 0 0 Z " fill="#FBFDF6" transform="translate(224,201)"/>
<path d="M0 0 C6.93 0 13.86 0 21 0 C21 6.93 21 13.86 21 21 C20.34 19.68 19.68 18.36 19 17 C14.34743925 8.52087661 9.22612322 4.02235071 0 1 C0 0.67 0 0.34 0 0 Z " fill="#FCFEF8" transform="translate(204,0)"/>
<path d="M0 0 C1.56197295 2.34295943 3.10846459 4.69014198 4.625 7.0625 C5.07101563 7.75472656 5.51703125 8.44695312 5.9765625 9.16015625 C7 11 7 11 7 13 C7.53625 13.268125 8.0725 13.53625 8.625 13.8125 C10.3919811 14.69599055 12.1392378 15.61915098 13.875 16.5625 C16.98467949 17.99295257 19.61772053 18.59734768 23 19 C23 19.33 23 19.66 23 20 C15.41 20 7.82 20 0 20 C0 13.4 0 6.8 0 0 Z " fill="#FAFDF5" transform="translate(0,205)"/>
<path d="M0 0 C6.93 0 13.86 0 21 0 C18.94527124 1.02736438 16.88934181 2.05285463 14.81640625 3.04296875 C8.69135163 6.15326512 4.68530116 9.44968687 2.2578125 16.00390625 C1.77197844 17.65108338 1.37616143 19.32437182 1 21 C0.67 21 0.34 21 0 21 C0 14.07 0 7.14 0 0 Z " fill="#FBFDF6" transform="translate(0,0)"/>
</svg>
